<?xml version="1.0"?>
<svg version="1.1" xmlns="http://www.w3.org/2000/svg" width="400px" height="200px" style=""><path fill="#" d=""/><path fill="#ffffff" d="M15.592,110.724l0.42,2.352s1.12,0.588,2.744,0.588c1.792,0,3.388-0.784,3.388-2.268c0-3.276-9.464-1.82-9.464-8.736c0-3.864,3.052-5.936,7.112-5.936c3.164,0,6.16,1.12,6.16,1.12l-0.14,5.096l-2.576,0l-0.7-2.38s-1.26-0.42-2.464-0.42c-1.988,0-2.968,0.868-2.968,1.988c0,3.248,9.436,1.96,9.436,8.54c0,4.2-3.248,6.496-7.56,6.496c-3.164,0-6.244-1.064-6.244-1.064l0-5.376l2.856,0z M36.74628,101.68l0.252,1.932s2.016-2.212,3.892-2.212c1.54,0,2.604,0.504,2.604,0.504l-0.224,5.376l-2.52,0l-0.42-2.38c-1.624,0-3.024,1.568-3.024,1.568l0,7.392l2.8,0.7l0,2.24l-9.24,0l0-2.24l2.24-0.7l0-9.1l-2.24-0.7l0-2.24z M48.29656,97.06c0-1.596,1.148-2.52,2.408-2.52c1.456,0,2.352,0.756,2.352,2.52c0,1.652-1.204,2.548-2.352,2.548c-1.512,0-2.408-0.896-2.408-2.548z M53.00056,113.86l1.96,0.7l0,2.24l-8.4,0l0-2.24l2.24-0.7l0-9.1l-2.24-0.7l0-2.24l6.44-0.14l0,12.18z M64.77484,113.86l2.52,0.7l0,2.24l-8.988,0l0-2.24l2.24-0.7l0-15.736l-2.24-0.56l0-2.24l6.468-0.224l0,18.76z M79.90912,116.8l-0.504-1.82s-2.156,2.1-4.536,2.1c-2.716,0-4.368-1.596-4.368-4.396c0-3.304,2.492-4.62,6.748-4.62l1.96,0l0-1.54c0-1.428-0.756-2.044-2.156-2.044c-1.428,0-2.464,0.42-2.464,0.42l-0.42,1.764l-2.52,0l-0.196-4.144s3.388-1.12,6.076-1.12c4.256,0,5.88,1.484,5.88,5.544l0,6.916l2.1,0.504l0,2.24z M79.20912,110.444l-1.596,0c-2.184,0-3.052,0.56-3.052,1.82c0,1.064,0.588,1.68,1.652,1.68c1.484,0,2.996-1.624,2.996-1.624l0-1.876z M95.0714,101.68l0.196,1.932s2.66-2.156,5.152-2.156c2.716,0,4.256,1.932,4.256,4.984l0,7.42l1.96,0.7l0,2.24l-7.7,0l0-2.24l1.54-0.7l0-6.664c0-1.288-0.728-2.24-1.904-2.24c-1.736,0-2.996,1.596-2.996,1.596l0,7.308l1.54,0.7l0,2.24l-7.98,0l0-2.24l2.24-0.7l0-9.1l-2.24-0.7l0-2.24z M116.28168,107.308l1.848,0l1.904-2.856l-1.232-0.392l0-2.24l7.224-0.14l0,2.38l-1.96,0.364l-2.604,3.668l3.136,5.796l2.128,0.672l0,2.24l-5.18,0l-3.472-6.832l-1.792,0l0,3.892l1.54,0.7l0,2.24l-7.98,0l0-2.24l2.24-0.7l0-15.736l-2.24-0.56l0-2.24l6.44-0.224l0,12.208z M139.47996,116.8l-0.504-1.82s-2.156,2.1-4.536,2.1c-2.716,0-4.368-1.596-4.368-4.396c0-3.304,2.492-4.62,6.748-4.62l1.96,0l0-1.54c0-1.428-0.756-2.044-2.156-2.044c-1.428,0-2.464,0.42-2.464,0.42l-0.42,1.764l-2.52,0l-0.196-4.144s3.388-1.12,6.076-1.12c4.256,0,5.88,1.484,5.88,5.544l0,6.916l2.1,0.504l0,2.24z M138.77996,110.444l-1.596,0c-2.184,0-3.052,0.56-3.052,1.82c0,1.064,0.588,1.68,1.652,1.68c1.484,0,2.996-1.624,2.996-1.624l0-1.876z M160.84452,110.724l0.42,2.352s1.12,0.588,2.744,0.588c1.792,0,3.388-0.784,3.388-2.268c0-3.276-9.464-1.82-9.464-8.736c0-3.864,3.052-5.936,7.112-5.936c3.164,0,6.16,1.12,6.16,1.12l-0.14,5.096l-2.576,0l-0.7-2.38s-1.26-0.42-2.464-0.42c-1.988,0-2.968,0.868-2.968,1.988c0,3.248,9.436,1.96,9.436,8.54c0,4.2-3.248,6.496-7.56,6.496c-3.164,0-6.244-1.064-6.244-1.064l0-5.376l2.856,0z M185.6668,116.8l-0.504-1.82s-2.156,2.1-4.536,2.1c-2.716,0-4.368-1.596-4.368-4.396c0-3.304,2.492-4.62,6.748-4.62l1.96,0l0-1.54c0-1.428-0.756-2.044-2.156-2.044c-1.428,0-2.464,0.42-2.464,0.42l-0.42,1.764l-2.52,0l-0.196-4.144s3.388-1.12,6.076-1.12c4.256,0,5.88,1.484,5.88,5.544l0,6.916l2.1,0.504l0,2.24z M184.9668,110.444l-1.596,0c-2.184,0-3.052,0.56-3.052,1.82c0,1.064,0.588,1.68,1.652,1.68c1.484,0,2.996-1.624,2.996-1.624l0-1.876z M197.55308,101.96l0-1.26c0-3.556,2.044-5.936,6.02-5.936c3.024,0,4.956,1.036,4.956,1.036l-0.084,4.116l-2.52,0l-0.42-1.96s-0.672-0.112-1.596-0.112c-1.54,0-2.156,0.924-2.156,2.38l0,1.736l3.64,0l-0.084,2.8l-3.556,0l0,9.1l2.8,0.7l0,2.24l-9.24,0l0-2.24l2.24-0.7l0-9.1l-2.52,0l0-2.38z M219.32336,116.8l-0.504-1.82s-2.156,2.1-4.536,2.1c-2.716,0-4.368-1.596-4.368-4.396c0-3.304,2.492-4.62,6.748-4.62l1.96,0l0-1.54c0-1.428-0.756-2.044-2.156-2.044c-1.428,0-2.464,0.42-2.464,0.42l-0.42,1.764l-2.52,0l-0.196-4.144s3.388-1.12,6.076-1.12c4.256,0,5.88,1.484,5.88,5.544l0,6.916l2.1,0.504l0,2.24z M218.62336,110.444l-1.596,0c-2.184,0-3.052,0.56-3.052,1.82c0,1.064,0.588,1.68,1.652,1.68c1.484,0,2.996-1.624,2.996-1.624l0-1.876z M234.42964,101.68l0.252,1.932s2.016-2.212,3.892-2.212c1.54,0,2.604,0.504,2.604,0.504l-0.224,5.376l-2.52,0l-0.42-2.38c-1.624,0-3.024,1.568-3.024,1.568l0,7.392l2.8,0.7l0,2.24l-9.24,0l0-2.24l2.24-0.7l0-9.1l-2.24-0.7l0-2.24z M245.97992,97.06c0-1.596,1.148-2.52,2.408-2.52c1.456,0,2.352,0.756,2.352,2.52c0,1.652-1.204,2.548-2.352,2.548c-1.512,0-2.408-0.896-2.408-2.548z M250.68392,113.86l1.96,0.7l0,2.24l-8.4,0l0-2.24l2.24-0.7l0-9.1l-2.24-0.7l0-2.24l6.44-0.14l0,12.18z M271.37648,97.06l2.94,0c3.64,0,6.16,1.54,6.16,4.844c0,2.436-1.148,3.92-3.36,4.62c2.632,0.756,4.004,2.324,4.004,4.48c0,4.116-2.744,5.796-7.28,5.796l-8.904,0l0-2.38l2.1-0.84l0-13.16l-2.1-0.84l0-2.38z M271.37648,105.124l1.624,0c2.044,0,3.136-0.868,3.136-2.604c0-1.456-1.036-2.1-2.38-2.1l-2.38,0l0,4.704z M271.37648,113.44l2.324,0c1.96,0,2.996-0.896,2.996-2.436c0-2.044-1.176-2.94-3.696-2.94l-1.624,0l0,5.376z M292.86676,101.4c4.536,0,7.056,2.744,7.056,7.56c0,5.04-2.94,8.12-7.476,8.12c-4.564,0-7.14-2.38-7.14-7.7c0-5.04,2.996-7.98,7.56-7.98z M292.72676,104.76c-2.044,0-3.08,1.12-3.08,4.48c0,3.08,0.896,4.48,2.94,4.48c2.016,0,2.996-1.26,2.996-4.62c0-2.856-0.84-4.34-2.856-4.34z M311.38904,101.4c4.536,0,7.056,2.744,7.056,7.56c0,5.04-2.94,8.12-7.476,8.12c-4.564,0-7.14-2.38-7.14-7.7c0-5.04,2.996-7.98,7.56-7.98z M311.24904,104.76c-2.044,0-3.08,1.12-3.08,4.48c0,3.08,0.896,4.48,2.94,4.48c2.016,0,2.996-1.26,2.996-4.62c0-2.856-0.84-4.34-2.856-4.34z M328.37132,107.308l1.848,0l1.904-2.856l-1.232-0.392l0-2.24l7.224-0.14l0,2.38l-1.96,0.364l-2.604,3.668l3.136,5.796l2.128,0.672l0,2.24l-5.18,0l-3.472-6.832l-1.792,0l0,3.892l1.54,0.7l0,2.24l-7.98,0l0-2.24l2.24-0.7l0-15.736l-2.24-0.56l0-2.24l6.44-0.224l0,12.208z M343.7576,97.06c0-1.596,1.148-2.52,2.408-2.52c1.456,0,2.352,0.756,2.352,2.52c0,1.652-1.204,2.548-2.352,2.548c-1.512,0-2.408-0.896-2.408-2.548z M348.4616,113.86l1.96,0.7l0,2.24l-8.4,0l0-2.24l2.24-0.7l0-9.1l-2.24-0.7l0-2.24l6.44-0.14l0,12.18z M360.12388,101.68l0.196,1.932s2.66-2.156,5.152-2.156c2.716,0,4.256,1.932,4.256,4.984l0,7.42l1.96,0.7l0,2.24l-7.7,0l0-2.24l1.54-0.7l0-6.664c0-1.288-0.728-2.24-1.904-2.24c-1.736,0-2.996,1.596-2.996,1.596l0,7.308l1.54,0.7l0,2.24l-7.98,0l0-2.24l2.24-0.7l0-9.1l-2.24-0.7l0-2.24z M380.77416,114.28l4.144,0c3.556,0,5.6,1.54,5.6,4.34c0,3.08-2.464,5.32-7.84,5.32c-4.396,0-7.224-0.98-7.224-4.06c0-2.408,2.94-3.36,2.94-3.36s-1.68-0.252-1.68-1.848c0-0.812,1.12-2.632,1.456-3.164c-0.672-0.448-2.156-1.652-2.156-4.368c0-3.836,2.884-5.74,6.72-5.74c1.624,0,2.772,0.42,3.304,0.672l4.816-0.112l0,2.24l-2.296,0.392c0.056,0.252,0.476,1.008,0.476,2.212c0,4.06-2.856,5.74-6.72,5.74c-0.756,0-1.316-0.14-1.428-0.14z M382.59416,104.284c-1.68,0-2.38,0.896-2.38,2.66c0,1.68,0.644,2.8,2.24,2.8c1.764,0,2.38-0.924,2.38-2.8c0-1.764-0.7-2.66-2.24-2.66z M383.79816,117.36l-2.94,0s-1.344,0.616-1.344,1.82c0,1.4,1.204,1.68,3.5,1.68c2.52,0,3.584-0.56,3.584-1.904c0-1.26-0.924-1.596-2.8-1.596z"/></svg>
